#!OML:ASF I:\Actors\actors\Patient Classification 2\Patient 1\Session 1\actor1.ASF
:FULLY-SPECIFIED
:DEGREES
149
root -1.98878 18.018 5.53913 -2.78029 -12.9523 -5.16034
lowerback 4.31542 -3.75447 7.76887
upperback -1.47121 -4.46881 2.1917
thorax -4.37754 -2.39169 -1.68013
lowerneck -11.5871 2.95871 4.62431
upperneck 28.7078 3.77242 -2.656
head 11.3694 1.83283 -1.28691
rclavicle -5.40694e-014 -2.54444e-014
rhumerus 13.3644 -15.4549 -49.9714
rradius 144.841
rwrist 27.5651
rhand -56.3018 -24.5737
rfingers 7.12502
rthumb -28.6246 -52.4013
lclavicle -5.40694e-014 -2.54444e-014
lhumerus -13.3487 -4.71584 83.4585
lradius 63.2179
lwrist 33.3406
lhand -14.4643 -16.8305
lfingers 7.12502
lthumb 11.6814 12.8238
rfemur 16.5393 4.13882 25.0963
rtibia -10.6198
rfoot -8.40893 -7.81193
rtoes 11.7605
lfemur 24.4051 -0.80945 -8.10146
ltibia -20.1299
lfoot -3.46157 17.2558
ltoes -5.71949
150
root -1.98133 18.0116 5.55656 -2.78354 -13.1888 -5.2517
lowerback 4.38718 -3.78958 7.92655
upperback -1.72009 -4.48583 2.1435
thorax -4.69888 -2.41946 -1.7969
lowerneck -11.5186 2.8909 4.78281
upperneck 29.0675 3.62667 -2.61395
head 11.4917 1.78744 -1.32145
rclavicle -1.92821e-014 1.98785e-014
rhumerus 17.1658 -17.4214 -49.4143
rradius 145.505
rwrist 27.8865
rhand -56.3448 -24.305
rfingers 7.12502
rthumb -28.6657 -52.1258
lclavicle -1.92821e-014 1.98785e-014
lhumerus -13.5459 -4.64119 83.7327
lradius 62.9797
lwrist 33.4389
lhand -14.5069 -16.7082
lfingers 7.12502
lthumb 11.6403 12.9484
rfemur 16.664 4.21095 25.1586
rtibia -10.7321
rfoot -8.2821 -7.71166
rtoes 11.756
lfemur 24.5568 -0.889405 -8.10271
ltibia -20.1109
lfoot -3.55535 17.5141
ltoes -5.78702
151
root -1.97134 18.0034 5.57695 -2.81509 -13.4026 -5.30636
lowerback 4.35597 -3.82047 7.97266
upperback -1.8812 -4.51913 2.11763
thorax -4.86028 -2.44602 -1.83944
lowerneck -11.5936 2.84298 4.89076
upperneck 29.4493 3.51138 -2.55932
head 11.6528 1.75155 -1.3372
rclavicle 2.70844e-014 -1.98785e-015
rhumerus 20.7125 -19.5024 -48.8867
rradius 146.005
rwrist 27.6469
rhand -56.6444 -23.3463
rfingers 7.12502
rthumb -28.9519 -51.1184
lclavicle 2.70844e-014 -1.98785e-015
lhumerus -13.626 -4.64887 84.0037
lradius 62.6797
lwrist 33.5059
lhand -14.5276 -16.5255
lfingers 7.12502
lthumb 11.6203 13.1323
rfemur 16.8734 4.21876 25.1606
rtibia -10.9395
rfoot -8.1031 -7.5912
rtoes 11.6599
lfemur 24.7236 -0.862232 -8.1094
ltibia -20.0683
lfoot -3.56629 17.9651
ltoes -7.00381
152
root -1.96043 17.9934 5.59921 -2.90011 -13.603 -5.40935
lowerback 4.25115 -3.84801 7.99631
upperback -1.95589 -4.56165 2.10518
thorax -4.88669 -2.47073 -1.86442
lowerneck -11.666 2.81068 4.9509
upperneck 29.7699 3.40781 -2.43529
head 11.7888 1.72499 -1.31701
rclavicle -9.24349e-015 1.63003e-014
rhumerus 23.9206 -21.6358 -48.3315
rradius 146.272
rwrist 27.288
rhand -56.0982 -24.5141
rfingers 7.12502
rthumb -28.4301 -52.3745
lclavicle -9.24349e-015 1.63003e-014
lhumerus -13.6442 -4.74188 84.2558
lradius 62.3719
lwrist 33.5812
lhand -14.5169 -16.2579
lfingers 7.12502
lthumb 11.6306 13.3993
rfemur 17.1826 4.18327 25.205
rtibia -11.1948
rfoot -7.90979 -7.45844
rtoes 11.2958
lfemur 24.9463 -0.875211 -8.05938
ltibia -20.0079
lfoot -3.59674 18.4231
ltoes -8.45866
153
root -1.94825 17.9831 5.62128 -3.01577 -13.7989 -5.51228
lowerback 4.20695 -3.85449 7.98184
upperback -2.05153 -4.57193 2.06849
thorax -4.96533 -2.48062 -1.89174
lowerneck -11.6593 2.72781 5.09056
upperneck 30.0722 3.22603 -2.35393
head 11.9013 1.6678 -1.33807
rclavicle -4.82053e-015 3.37934e-014
rhumerus 26.7494 -23.5911 -47.9414
rradius 146.36
rwrist 26.4821
rhand -55.6444 -25.2168
rfingers 7.12502
rthumb -27.9964 -53.1487
lclavicle -4.82053e-015 3.37934e-014
lhumerus -13.7538 -4.95986 84.5081
lradius 62.1236
lwrist 33.6144
lhand -14.4629 -15.9722
lfingers 7.12502
lthumb 11.6828 13.6821
rfemur 17.5186 4.17113 25.249
rtibia -11.4463
rfoot -7.71411 -7.32824
rtoes 10.9806
lfemur 25.1885 -0.973492 -8.02163
ltibia -19.9438
lfoot -3.67796 18.8455
ltoes -9.99045
154
root -1.93373 17.9741 5.64431 -3.14365 -13.9537 -5.55639
lowerback 4.22554 -3.84251 7.89116
upperback -2.18064 -4.55506 2.00715
thorax -5.10791 -2.47757 -1.89971
lowerneck -11.6536 2.61247 5.28417
upperneck 30.4307 2.98355 -2.27721
head 12.0359 1.58979 -1.37921
rclavicle 1.61513e-014 7.95139e-016
rhumerus 29.1265 -25.2988 -47.647
rradius 146.312
rwrist 25.6264
rhand -57.3766 -22.9467
rfingers 7.12502
rthumb -29.651 -50.5965
lclavicle 1.61513e-014 7.95139e-016
lhumerus -13.8776 -5.20591 84.8157
lradius 61.8207
lwrist 33.4716
lhand -14.3451 -15.7653
lfingers 7.12502
lthumb 11.7963 13.8824
rfemur 17.839 4.26564 25.2443
rtibia -11.6579
rfoot -7.58572 -7.2902
rtoes 10.8693
lfemur 25.4188 -1.05194 -8.04812
ltibia -19.9082
lfoot -3.64366 19.0907
ltoes -11.2947
155
root -1.91625 17.9658 5.67009 -3.31352 -14.0555 -5.59588
lowerback 4.23825 -3.85238 7.77509
upperback -2.29611 -4.57032 1.95272
thorax -5.23313 -2.48848 -1.88437
lowerneck -11.5992 2.51139 5.44933
upperneck 30.7582 2.76869 -2.19741
head 12.1493 1.52239 -1.41094
rclavicle -2.40529e-014 -2.34566e-014
rhumerus 30.9094 -26.5017 -47.2126
rradius 146.102
rwrist 25.9108
rhand -57.6223 -25.5938
rfingers 7.12502
rthumb -29.8855 -53.2017
lclavicle -2.40529e-014 -2.34566e-014
lhumerus -13.9945 -5.36254 85.1393
lradius 61.4906
lwrist 33.2736
lhand -14.2345 -15.6087
lfingers 7.12502
lthumb 11.903 14.033
rfemur 18.1837 4.34714 25.2289
rtibia -11.8167
rfoot -7.50897 -7.29146
rtoes 10.5824
lfemur 25.7164 -1.20633 -8.12343
ltibia -19.9125
lfoot -3.67378 19.3394
ltoes -11.9389
156
root -1.89503 17.9567 5.69646 -3.53264 -14.1494 -5.66466
lowerback 4.27897 -3.88988 7.70588
upperback -2.36811 -4.6192 1.89962
thorax -5.3356 -2.51564 -1.88975
lowerneck -11.6453 2.44063 5.49678
upperneck 31.1092 2.5935 -2.03133
head 12.2926 1.47034 -1.3834
rclavicle 7.47927e-014 -4.29375e-014
rhumerus 32.2514 -27.7662 -46.7946
rradius 145.918
rwrist 25.158
rhand -57.9948 -25.7908
rfingers 7.12502
rthumb -30.2409 -53.3342
lclavicle 7.47927e-014 -4.29375e-014
lhumerus -14.0991 -5.43912 85.4048
lradius 61.218
lwrist 33.1419
lhand -14.1472 -15.4547
lfingers 7.12502
lthumb 11.9872 14.182
rfemur 18.5689 4.3582 25.2195
rtibia -11.9378
rfoot -7.45643 -7.22848
rtoes 10.3627
lfemur 26.1118 -1.50176 -8.23933
ltibia -19.9397
lfoot -3.95216 19.6959
ltoes -11.8268
157
root -1.87254 17.9472 5.72379 -3.7558 -14.2743 -5.7113
lowerback 4.02529 -3.89885 7.58572
upperback -2.21516 -4.67407 1.85261
thorax -5.02792 -2.52866 -1.89338
lowerneck -11.9075 2.38115 5.43444
upperneck 31.35 2.42055 -1.77155
head 12.4345 1.41807 -1.29784
rclavicle -1.03865e-014 -2.34566e-014
rhumerus 33.0619 -29.2298 -46.1329
rradius 145.474
rwrist 24.8144
rhand -58.5822 -27.1871
rfingers 7.12502
rthumb -30.8011 -54.6263
lclavicle -1.03865e-014 -2.34566e-014
lhumerus -13.7953 -5.43522 85.6339
lradius 60.8889
lwrist 33.0405
lhand -14.1233 -15.3067
lfingers 7.12502
lthumb 12.0102 14.3287
rfemur 18.9556 4.43389 25.1923
rtibia -12.0506
rfoot -7.46598 -7.16779
rtoes 10.3845
lfemur 26.5214 -1.7397 -8.39143
ltibia -19.9674
lfoot -4.27803 20.0039
ltoes -11.5467
158
root -1.85115 17.938 5.75252 -3.86951 -14.3903 -5.7467
lowerback 3.1434 -3.88933 7.29551
upperback -1.78526 -4.78479 1.86626
thorax -4.05858 -2.5419 -1.79692
lowerneck -12.1823 2.3334 5.44124
upperneck 31.285 2.30234 -1.68037
head 12.4599 1.37588 -1.27848
rclavicle 4.7112e-014 -3.57812e-015
rhumerus 35.8015 -30.1389 -46.7449
rradius 145.271
rwrist 24.5685
rhand -58.1632 -26.3391
rfingers 7.12502
rthumb -30.4016 -53.8529
lclavicle 4.7112e-014 -3.57812e-015
lhumerus -12.9599 -5.24832 85.8481
lradius 60.452
lwrist 32.9021
lhand -14.1432 -15.13
lfingers 7.12502
lthumb 11.991 14.5065
rfemur 19.2321 4.60963 25.1723
rtibia -12.167
rfoot -7.54807 -7.18403
rtoes 10.6487
lfemur 26.792 -1.87376 -8.53906
ltibia -19.9863
lfoot -4.47408 20.2596
ltoes -11.7425
159
root -1.82882 17.9296 5.78095 -3.92703 -14.5231 -5.77605
lowerback 2.9186 -3.90245 7.07884
upperback -1.92709 -4.82702 1.84639
thorax -4.06603 -2.56134 -1.70502
lowerneck -11.887 2.25995 5.50496
upperneck 31.5016 2.15566 -1.58093
head 12.481 1.33104 -1.27664
rclavicle -1.36167e-014 -1.47101e-014
rhumerus 37.0237 -30.8366 -46.7027
rradius 145.191
rwrist 23.5449
rhand -57.9756 -24.3458
rfingers 7.12502
rthumb -30.2226 -51.8925
lclavicle -1.36167e-014 -1.47101e-014
lhumerus -13.0775 -5.0848 86.112
lradius 60.1339
lwrist 32.6597
lhand -14.1281 -14.9926
lfingers 7.12502
lthumb 12.0056 14.6431
rfemur 19.4396 4.78644 25.1367
rtibia -12.2679
rfoot -7.57984 -7.19105
rtoes 10.7008
lfemur 26.9979 -2.01339 -8.70302
ltibia -19.998
lfoot -4.63321 20.5408
ltoes -12.0664
